<svg width="157" height="25" viewBox="0 0 157 25" fill="none" xmlns="http://www.w3.org/2000/svg"><g clip-path="url(#clip0_859_230)"><path d="M44.0519 4.15858C43.9747 4.31253 43.8659 4.44741 43.7329 4.55386C43.5994 4.64365 43.4418 4.68787 43.2824 4.68024C43.0358 4.66094 42.8011 4.56395 42.6102 4.40251C42.3584 4.21735 42.0443 4.00967 41.6676 3.77945C41.2388 3.52525 40.786 3.31649 40.316 3.1564C39.7072 2.9583 39.0709 2.86447 38.4324 2.87867C37.8072 2.86712 37.1844 2.96094 36.5888 3.1564C36.1007 3.3171 35.6492 3.57751 35.2615 3.92199C34.9126 4.23915 34.6382 4.63357 34.4592 5.07552C34.2746 5.53131 34.1807 6.02047 34.1831 6.51413C34.1596 7.09887 34.3301 7.67448 34.6666 8.1467C35.0152 8.59632 35.4468 8.97084 35.9366 9.2488C36.5062 9.57784 37.1072 9.84572 37.7302 10.0482C38.3976 10.2725 39.0832 10.5081 39.7869 10.755C40.4905 11.0019 41.1761 11.2796 41.8436 11.5882C42.4962 11.8838 43.1011 12.2802 43.6371 12.7638C44.1722 13.2544 44.6052 13.8512 44.91 14.5183C45.2323 15.204 45.3934 16.0485 45.3934 17.0517C45.4014 18.0731 45.2209 19.0868 44.8614 20.0391C44.516 20.9498 43.9883 21.7758 43.3124 22.4637C42.5998 23.1772 41.7523 23.7328 40.8224 24.0963C39.7496 24.511 38.6102 24.7139 37.4641 24.6943C36.0261 24.6977 34.6022 24.4028 33.2778 23.8274C32.6577 23.5569 32.065 23.2241 31.5086 22.834C30.9684 22.4572 30.4709 22.0195 30.0254 21.5291L31.008 19.8789C31.0946 19.7451 31.2095 19.6331 31.3441 19.5512C31.48 19.4671 31.636 19.4234 31.7946 19.4248C32.0244 19.4248 32.2895 19.5483 32.5898 19.7951C32.8902 20.042 33.2616 20.3144 33.704 20.6122C34.2072 20.9412 34.7427 21.2151 35.3016 21.4292C36.0269 21.6937 36.7934 21.8192 37.5628 21.7995C38.2301 21.8098 38.8944 21.7076 39.5294 21.4968C40.0701 21.3169 40.5691 21.0248 40.9954 20.6386C41.3949 20.2674 41.7061 19.8069 41.9051 19.2926C42.118 18.7354 42.2239 18.141 42.2169 17.5425C42.2169 16.8244 42.0557 16.2366 41.7334 15.7791C41.3952 15.3104 40.9618 14.9228 40.4634 14.6432C39.896 14.3215 39.2972 14.0619 38.677 13.8688C38.0095 13.6562 37.324 13.4348 36.6203 13.2046C35.921 12.9769 35.2344 12.71 34.5636 12.4052C33.9099 12.1106 33.3067 11.7097 32.7772 11.2179C32.2358 10.7055 31.8033 10.0837 31.5071 9.39134C31.1848 8.6615 31.0237 7.75827 31.0237 6.68165C31.0236 5.82354 31.1909 4.9741 31.5157 4.18356C31.8434 3.3769 32.3304 2.64887 32.946 2.04549C33.6116 1.40356 34.3922 0.900517 35.2444 0.564266C36.2456 0.174375 37.3104 -0.0146799 38.3809 0.0073395C39.6182 -0.0102494 40.8483 0.203869 42.0109 0.639209C43.0819 1.04871 44.0602 1.67878 44.8857 2.49073L44.0519 4.15858Z" fill="#454545"></path><path d="M52.0612 10.7344H53.2498C53.5999 10.747 53.9493 10.6917 54.2795 10.5713C54.56 10.4496 54.806 10.257 54.9947 10.0114L62.7666 0.822844C62.9615 0.557438 63.2136 0.34214 63.5032 0.193913C63.8007 0.062768 64.1222 -0.000887972 64.4458 0.00729104H67.3763L58.3987 10.5625C58.0433 11.0458 57.5925 11.4465 57.0757 11.738C57.6783 11.9565 58.2089 12.3924 58.6675 13.0459L68.0142 24.7134H65.0107C64.5635 24.7134 64.2341 24.6473 64.0224 24.515C63.8033 24.3762 63.6151 24.1915 63.4703 23.9728L55.4309 14.2846C55.2378 14.0232 54.9887 13.811 54.7029 13.6645C54.4407 13.5381 54.0469 13.4749 53.5215 13.4749H52.0612V24.7119H48.6172V0.00729104H52.0612V10.7344Z" fill="#454545"></path><path d="M80.2901 21.8685C81.183 21.884 82.0694 21.7109 82.8946 21.3601C83.6356 21.0391 84.2987 20.5545 84.8369 19.9406C85.3813 19.3075 85.7945 18.567 86.0512 17.7643C86.339 16.8636 86.4805 15.9203 86.4702 14.9724V0.00732422H89.92V14.9679C89.9319 16.3305 89.7042 17.684 89.2478 18.9634C88.8279 20.1468 88.1783 21.2302 87.3384 22.1477C86.4848 23.0616 85.451 23.7776 84.3063 24.2476C81.7136 25.2573 78.8509 25.2573 76.2582 24.2476C75.1155 23.7732 74.0832 23.0561 73.229 22.1433C72.3854 21.229 71.7331 20.1468 71.3124 18.9634C70.8573 17.6848 70.6306 16.3323 70.6431 14.9709V0.00732422H74.0871V14.9679C74.0804 15.9121 74.2253 16.851 74.5162 17.7467C74.7738 18.5515 75.1868 19.2947 75.7305 19.9318C76.2687 20.5516 76.9354 21.0397 77.6813 21.3601C78.5083 21.71 79.3959 21.883 80.2901 21.8685Z" fill="#454545"></path><path d="M97.8596 23.2102H109.099V24.7075H96.1519L96.1133 0.00732422H97.8296L97.8596 23.2102Z" fill="#454545"></path><path d="M123.116 24.7076C122.972 24.7221 122.829 24.6806 122.714 24.5912C122.599 24.5019 122.521 24.3713 122.496 24.2256L122.262 22.0406C121.828 22.4775 121.373 22.891 120.897 23.2793C120.458 23.638 119.983 23.9493 119.481 24.208C118.976 24.4656 118.442 24.659 117.891 24.784C117.275 24.9231 116.645 24.9916 116.014 24.9883C115.452 24.9892 114.893 24.902 114.357 24.7297C113.833 24.5666 113.347 24.2973 112.926 23.9376C112.498 23.5638 112.156 23.0965 111.925 22.5696C111.662 21.9354 111.537 21.2498 111.559 20.5608C111.558 19.8426 111.768 19.1407 112.163 18.5476C112.565 17.9285 113.193 17.3897 114.046 16.9312C114.9 16.4728 116 16.1054 117.346 15.8291C118.946 15.5276 120.568 15.3664 122.194 15.3471V13.5573C122.194 11.9742 121.861 10.7551 121.193 9.89984C120.526 9.04462 119.542 8.61749 118.243 8.61847C117.544 8.59989 116.847 8.71654 116.19 8.96233C115.688 9.15943 115.208 9.41324 114.76 9.7191C114.426 9.94917 114.107 10.202 113.806 10.4759C113.56 10.7051 113.354 10.8197 113.187 10.8197C113.083 10.8231 112.98 10.7956 112.891 10.7406C112.802 10.6856 112.731 10.6054 112.685 10.5097L112.399 10.0101C113.191 9.17266 114.121 8.48523 115.146 7.97925C116.173 7.5063 117.288 7.2715 118.413 7.29154C119.215 7.27481 120.012 7.42475 120.757 7.73238C121.403 8.00704 121.975 8.43808 122.423 8.98878C122.885 9.57138 123.226 10.245 123.424 10.9681C123.656 11.8102 123.769 12.6822 123.759 13.5573V24.7076H123.116ZM116.422 23.7951C117.023 23.8011 117.622 23.729 118.205 23.5806C118.73 23.444 119.236 23.2416 119.713 22.9781C120.177 22.7202 120.612 22.4118 121.012 22.0582C121.414 21.7026 121.81 21.3181 122.2 20.9047V16.4478C120.829 16.4741 119.46 16.5978 118.105 16.8181C117.13 16.9696 116.177 17.246 115.269 17.641C114.526 17.9848 113.979 18.3948 113.627 18.8709C113.279 19.3369 113.093 19.9099 113.099 20.4976C113.087 21.0083 113.181 21.5158 113.375 21.9862C113.537 22.3761 113.781 22.7243 114.089 23.0056C114.398 23.2869 114.763 23.4944 115.159 23.6129C115.569 23.7383 115.994 23.7997 116.422 23.7951Z" fill="#454545"></path><path d="M128.945 24.7076L129.008 0.00732422H130.582L130.553 10.5801C131.243 9.61447 132.114 8.80096 133.116 8.18783C134.114 7.59313 135.251 7.28838 136.406 7.30615C138.449 7.30615 140.043 8.03158 141.187 9.48243C142.331 10.9333 142.903 13.1159 142.903 16.0304C142.912 17.2154 142.751 18.3953 142.425 19.5321C142.137 20.5573 141.658 21.5157 141.017 22.3549C140.401 23.1501 139.621 23.795 138.734 24.2432C137.763 24.718 136.698 24.9535 135.623 24.9309C134.46 24.9309 133.459 24.6987 132.62 24.2344C131.747 23.7381 131.005 23.0323 130.456 22.1771L130.356 24.277C130.322 24.564 130.173 24.7076 129.908 24.7076H128.945ZM135.938 8.61839C134.875 8.60638 133.831 8.91275 132.934 9.50007C131.984 10.1404 131.169 10.9698 130.536 11.9394V20.9736C131.174 21.9601 131.878 22.6513 132.65 23.0471C133.473 23.4308 134.366 23.6329 135.27 23.6403C136.175 23.6476 137.071 23.46 137.9 23.0897C138.632 22.7303 139.269 22.1962 139.759 21.532C140.279 20.8103 140.66 19.9927 140.879 19.1236C141.14 18.1171 141.267 17.0791 141.257 16.0377C141.257 13.4906 140.798 11.6181 139.881 10.42C138.964 9.22185 137.649 8.62133 135.938 8.61839Z" fill="#454545"></path><path d="M156.246 9.71892C156.215 9.79258 156.164 9.85499 156.098 9.89798C156.032 9.94098 155.955 9.96256 155.877 9.95992C155.701 9.93799 155.535 9.86339 155.399 9.74537C155.152 9.56931 154.894 9.40837 154.628 9.26339C154.254 9.0625 153.861 8.90101 153.456 8.78141C152.902 8.62619 152.329 8.55394 151.755 8.56686C151.194 8.55974 150.636 8.64965 150.104 8.83284C149.642 8.99084 149.211 9.23218 148.832 9.54553C148.491 9.82879 148.211 10.1822 148.011 10.583C147.82 10.9684 147.722 11.3952 147.725 11.8276C147.707 12.3078 147.849 12.7798 148.126 13.1663C148.415 13.5391 148.774 13.8484 149.182 14.0759C149.653 14.3436 150.15 14.5622 150.664 14.7283C151.217 14.9115 151.784 15.0947 152.364 15.2779C152.945 15.4611 153.512 15.6649 154.065 15.8892C154.592 16.0989 155.091 16.3796 155.547 16.7239C155.977 17.0509 156.337 17.4669 156.602 17.945C156.883 18.4835 157.022 19.0886 157.004 19.6995C157.01 20.4137 156.876 21.1218 156.611 21.7818C156.352 22.417 155.961 22.9867 155.466 23.4511C154.933 23.944 154.31 24.324 153.633 24.5693C152.837 24.8566 151.998 24.9964 151.154 24.9822C149.981 24.9822 148.971 24.7902 148.122 24.4062C147.289 24.0325 146.52 23.5239 145.844 22.9L146.228 22.3122C146.275 22.2305 146.338 22.1599 146.413 22.105C146.5 22.0538 146.599 22.0298 146.699 22.036C146.844 22.036 147.023 22.1276 147.235 22.3108C147.497 22.5279 147.774 22.7244 148.065 22.8985C148.469 23.1386 148.895 23.3355 149.338 23.4863C149.946 23.6853 150.583 23.7782 151.222 23.7611C151.853 23.7755 152.483 23.676 153.081 23.4672C153.577 23.2913 154.033 23.0133 154.421 22.6502C154.775 22.3113 155.052 21.8971 155.233 21.4364C155.418 20.9698 155.512 20.4706 155.509 19.967C155.528 19.4589 155.387 18.958 155.107 18.5386C154.824 18.146 154.465 17.8177 154.052 17.5747C153.584 17.2957 153.087 17.0705 152.57 16.9031C152.017 16.7199 151.447 16.5363 150.861 16.3521C150.275 16.1679 149.705 15.9671 149.153 15.7496C148.625 15.5452 148.126 15.2674 147.672 14.9238C147.242 14.5982 146.883 14.1849 146.616 13.71C146.331 13.1632 146.193 12.5487 146.214 11.929C146.216 11.3249 146.347 10.7287 146.6 10.1833C146.861 9.61629 147.235 9.11207 147.697 8.70352C148.209 8.25731 148.797 7.91297 149.431 7.68812C150.167 7.42677 150.941 7.29849 151.719 7.309C152.64 7.29293 153.556 7.44672 154.424 7.76307C155.228 8.076 155.965 8.5472 156.594 9.15024L156.246 9.71892Z" fill="#454545"></path><path d="M3.4326 0.507324C3.4326 0.231182 3.20874 0.00732422 2.9326 0.00732422H0.5C0.223857 0.00732422 0 0.231182 0 0.507324V24.1943C0 24.4704 0.223858 24.6943 0.5 24.6943H2.9326C3.20874 24.6943 3.4326 24.4704 3.4326 24.1943V0.507324Z" fill="#4AA199"></path><path d="M9.58251 0.507324C9.58251 0.231182 9.35865 0.00732422 9.08251 0.00732422H8.36621C8.09007 0.00732422 7.86621 0.231182 7.86621 0.507324V24.1943C7.86621 24.4704 8.09007 24.6943 8.36621 24.6943H9.08251C9.35865 24.6943 9.58251 24.4704 9.58251 24.1943V0.507324Z" fill="#4AA199"></path><path d="M14.5889 0.507324C14.5889 0.231182 14.3651 0.00732422 14.0889 0.00732422H11.6562C11.3801 0.00732422 11.1562 0.231182 11.1562 0.507324V24.1943C11.1562 24.4704 11.3801 24.6943 11.6563 24.6943H14.0889C14.3651 24.6943 14.5889 24.4704 14.5889 24.1943V0.507324Z" fill="#4AA199"></path><path d="M19.1655 0.507324C19.1655 0.231182 18.9417 0.00732422 18.6655 0.00732422H17.9492C17.6731 0.00732422 17.4492 0.231182 17.4492 0.507324V24.1943C17.4492 24.4704 17.6731 24.6943 17.9492 24.6943H18.6655C18.9417 24.6943 19.1655 24.4704 19.1655 24.1943V0.507324Z" fill="#4AA199"></path><path d="M24.0283 0.507324C24.0283 0.231182 23.8044 0.00732422 23.5283 0.00732422H21.0957C20.8196 0.00732422 20.5957 0.231182 20.5957 0.507324V24.1943C20.5957 24.4704 20.8196 24.6943 21.0957 24.6943H23.5283C23.8044 24.6943 24.0283 24.4704 24.0283 24.1943V0.507324Z" fill="#4AA199"></path></g><defs><clipPath id="clip0_859_230"><rect width="157" height="25" fill="white"></rect></clipPath></defs></svg>